@startuml
class itmo.lab7.model.Person {
- Date birthday
- double height
- int weight
- String passportID
}

class itmo.lab7.server.Commands.ClearCommand {
~ TicketManager tm
- ArgsForCommands argsForClear
~ DBManager dbManager
+ void setArgs(Object)
+ String executeCommand()
+ String describeCommand()
}


class itmo.lab7.server.Commands.HelpCommand {
- CommandManager cm
+ String executeCommand()
+ String describeCommand()
}


class itmo.lab7.client.ClientConsole {
- {static} String SERVER_HOST
- {static} int SERVER_PORT
- {static} Logger logger
- Map<String,CommandInfo> serverCommands
- boolean isRegistration
- String currentLogin
- String currentPassword
- void syncCommands(SocketChannel)
+ {static} void main(String[])
- void registerPpl(Scanner,SocketChannel)
- void run()
- void clientProcess(SocketChannel,Scanner)
- Response deserializeResponse(byte[])
- byte[] serializeRequest(Request)
- Response readResponse(SocketChannel)
+ void process(SocketChannel,Scanner,boolean)
}


class itmo.lab7.server.Commands.ShowCommand {
~ TicketManager tm
+ String executeCommand()
+ String describeCommand()
}


interface itmo.lab7.server.Commands.Command {
~ String getName()
~ String executeCommand()
~ void setArgs(Object)
~ Object getArgs()
~ String describeCommand()
~ boolean needsArgument()
~ boolean needMoreThenOneArgument()
}

class itmo.lab7.server.Commands.RemoveGreaterKeyCommand {
- ArgsForCommands args
- TicketManager tm
+ void setArgs(Object)
+ String executeCommand()
+ boolean needsArgument()
+ String typeOfArgument()
+ String getName()
+ String describeCommand()
}


class itmo.lab7.server.Commands.RemoveLowerKeyCommand {
- ArgsForCommands args
- TicketManager tm
+ void setArgs(Object)
+ String executeCommand()
+ boolean needsArgument()
+ String getName()
+ String typeOfArgument()
+ String describeCommand()
}


class itmo.lab7.server.Commands.ReplaceIfLowerCommand {
~ ArgsForCommands args
- TicketManager tm
+ void setArgs(Object)
+ String executeCommand()
+ boolean needMoreThenOneArgument()
+ String typeOfSecondArgument()
+ boolean needsArgument()
+ String getName()
+ String typeOfArgument()
+ String describeCommand()
}


class itmo.lab7.server.Commands.FilterGreaterThanPersonCommand {
- TicketManager tm
~ ArgsForCommands args
+ void setArgs(Object)
+ String executeCommand()
+ boolean needsArgument()
+ String typeOfArgument()
+ String getName()
+ String describeCommand()
}


interface itmo.lab7.server.Commands.TypeOfArgument {
~ String typeOfArgument()
}

class itmo.lab7.model.Ticket {
- int id
- String name
- Coordinates coordinates
- ZonedDateTime creationDate
- long price
- TicketType type
- Person person
+ TicketType getTicketType()
}


class itmo.lab7.server.Commands.UpdateIDCommand {
- ArgsForCommands argsForUpdate
~ TicketManager tm
~ DBManager dbManager
+ void setArgs(Object)
+ String executeCommand()
+ boolean needsArgument()
+ boolean needMoreThenOneArgument()
+ String typeOfArgument()
+ String typeOfSecondArgument()
+ String getName()
+ String describeCommand()
}


class itmo.lab7.server.Commands.ExecuteScriptCommand {
- ArgsForCommands argsForScript
+ void setArgs(Object)
+ String executeCommand()
+ String getName()
+ boolean needsArgument()
+ String typeOfArgument()
+ String describeCommand()
}


class itmo.lab7.server.Service.TicketManager {
- Map<Integer,Ticket> ticketsCollection
- LocalDateTime initTime
- {static} XStream xstream
- boolean saveFlag
+ {static} TicketManager getInstance()
+ String getInitTime()
+ String getCollectionTime()
+ int getCollectionSize()
+ int getCollectionHashCode()
+ void ticketRegister(int,Ticket)
+ void ticketRemove(Integer)
+ Map<Integer,Ticket> getTicketCollection()
+ TicketType getTicketType(Integer)
+ long getTicketPower(Ticket)
+ int getPersonPower(Ticket)
}


class itmo.lab7.server.Service.TicketManager$TicketManagerStatic {
- {static} TicketManager INSTANCE
}

class itmo.lab7.server.Service.PropertiesManager {
- {static} Properties PROPERTIES
- {static} void loadProperties()
+ {static} String get(String)
}


class itmo.lab7.server.Commands.PrintDescendingCommand {
- TicketManager tm
+ String executeCommand()
+ String getName()
+ String describeCommand()
}


class itmo.lab7.server.Commands.InsertCommand {
- TicketManager tm
- ArgsForCommands argsForInsert
- DBManager dbManager
+ void setArgs(Object)
+ String executeCommand()
+ String describeCommand()
+ String typeOfArgument()
+ boolean needsArgument()
+ boolean needMoreThenOneArgument()
+ String typeOfSecondArgument()
}


class itmo.lab7.common.Request {
- String commandName
- String stringArg
- Object objectArg
- boolean isRegistration
- String login
- String password
}

class itmo.lab7.server.Commands.MinByTypeCommand {
~ TicketManager tm
+ String executeCommand()
+ String getName()
+ String describeCommand()
}


class itmo.lab7.server.Commands.InfoCommand {
~ TicketManager tm
+ String describeCommand()
+ String executeCommand()
}


class itmo.lab7.server.Service.CommandManager {
- Map<String,Command> commands
+ List<String> fileNames
- {static} CommandManager instance
+ {static} CommandManager getInstance()
- void registerCmd(Command)
+ Command getCommand(String)
+ Set<String> getCommandKey()
+ Map<String,CommandInfo> getCommandsData()
}


class itmo.lab7.server.Service.DBManager {
- {static} DBManager instance
~ TicketManager ticketManager
- {static} String url
- {static} String username
- {static} String password
+ {static} DBManager getInstance()
+ void createTables()
+ void saveToBd(Ticket,int,int)
+ boolean registerUser(String,String)
+ boolean checkUser(String,String)
+ int getUserId(String)
+ boolean removeTicket(int,int)
+ void loadTickets(TicketManager)
+ boolean updateTicket(int,Ticket,int)
+ int clearTickets(int)
+ List<Integer> getUserTicketIds(int)
}


class itmo.lab7.server.Commands.RemoveKeyCommand {
- ArgsForCommands args
~ TicketManager tm
+ void setArgs(Object)
+ String executeCommand()
+ String getName()
+ String describeCommand()
+ String typeOfArgument()
+ boolean needsArgument()
}


class itmo.lab7.server.Commands.ExitCommand {
~ ArgsForCommands args
+ String executeCommand()
+ String describeCommand()
+ String typeOfArgument()
}


class itmo.lab7.common.CommandInfo {
- String name
- boolean needArg
- boolean needObject
+ String getName()
+ boolean needArg()
+ boolean needObject()
}


interface itmo.lab7.server.Commands.TypeOfSecondArgument {
~ String typeOfSecondArgument()
}

class itmo.lab7.server.Commands.SaveCommand {
~ TicketManager tm
+ String executeCommand()
+ String describeCommand()
}


enum itmo.lab7.model.TicketType {
+  VIP
+  USUAL
+  BUDGETARY
+  CHEAP
- int ticketTypeCode
+ {static} TicketType getTicketTypeByCode(Integer)
}


class itmo.lab7.common.Response {
- String message
- Object data
- boolean isSuccess
}

class itmo.lab7.server.Service.ArgsForCommands {
+ Ticket ticket
+ int key
+ String login
+ String fileName
+ SocketChannel socketChannel
}

class itmo.lab7.model.Coordinates {
- float x
- double y
}

class itmo.lab7.server.Server {
- Logger logger
- CommandManager commandManager
- TicketManager ticketManager
- DBManager dbManager
- InetAddress address
- int PORT
- ExecutorService ioPool
- ForkJoinPool processingPool
+ {static} void main(String[])
+ void startServer()
- void connectionAccept(ServerSocketChannel,Selector)
- void readFromClient(SocketChannel,SelectionKey)
- Request deserializeRequest(byte[])
- byte[] serializeResponse(Response)
+ String hashPassword(String)
+ Response handleRequest(Request)
- void sendResponse(SocketChannel,Response)
- void startConsoleThread()
}


class itmo.lab7.client.CreateTicket {
- Scanner scanner
- boolean isScriptMode
+ Ticket getTicket()
- String registerTicketName()
- float registerCoordinateX()
- double registerCoordinateY()
- Date registerPersonBirthday()
- double registerPersonHeight()
- int registerPersonWeight()
- String registerPersonPassportID()
- ZonedDateTime generationTicketTime()
- long registerTicketPrice()
- TicketType registerTicketType()
- Person registerPerson()
- int wrongInput(int)
}




java.io.Serializable <|.. itmo.lab7.model.Person
itmo.lab7.server.Commands.Command <|.. itmo.lab7.server.Commands.ClearCommand
itmo.lab7.server.Commands.Command <|.. itmo.lab7.server.Commands.HelpCommand
itmo.lab7.server.Commands.Command <|.. itmo.lab7.server.Commands.ShowCommand
itmo.lab7.server.Commands.Command <|.. itmo.lab7.server.Commands.RemoveGreaterKeyCommand
itmo.lab7.server.Commands.TypeOfArgument <|.. itmo.lab7.server.Commands.RemoveGreaterKeyCommand
itmo.lab7.server.Commands.Command <|.. itmo.lab7.server.Commands.RemoveLowerKeyCommand
itmo.lab7.server.Commands.TypeOfArgument <|.. itmo.lab7.server.Commands.RemoveLowerKeyCommand
itmo.lab7.server.Commands.Command <|.. itmo.lab7.server.Commands.ReplaceIfLowerCommand
itmo.lab7.server.Commands.TypeOfArgument <|.. itmo.lab7.server.Commands.ReplaceIfLowerCommand
itmo.lab7.server.Commands.TypeOfSecondArgument <|.. itmo.lab7.server.Commands.ReplaceIfLowerCommand
itmo.lab7.server.Commands.Command <|.. itmo.lab7.server.Commands.FilterGreaterThanPersonCommand
itmo.lab7.server.Commands.TypeOfArgument <|.. itmo.lab7.server.Commands.FilterGreaterThanPersonCommand
java.io.Serializable <|.. itmo.lab7.model.Ticket
itmo.lab7.server.Commands.Command <|.. itmo.lab7.server.Commands.UpdateIDCommand
itmo.lab7.server.Commands.TypeOfArgument <|.. itmo.lab7.server.Commands.UpdateIDCommand
itmo.lab7.server.Commands.TypeOfSecondArgument <|.. itmo.lab7.server.Commands.UpdateIDCommand
itmo.lab7.server.Commands.Command <|.. itmo.lab7.server.Commands.ExecuteScriptCommand
itmo.lab7.server.Commands.TypeOfArgument <|.. itmo.lab7.server.Commands.ExecuteScriptCommand
itmo.lab7.server.Service.TicketManager +.. itmo.lab7.server.Service.TicketManager$TicketManagerStatic
itmo.lab7.server.Commands.Command <|.. itmo.lab7.server.Commands.PrintDescendingCommand
itmo.lab7.server.Commands.Command <|.. itmo.lab7.server.Commands.InsertCommand
itmo.lab7.server.Commands.TypeOfArgument <|.. itmo.lab7.server.Commands.InsertCommand
itmo.lab7.server.Commands.TypeOfSecondArgument <|.. itmo.lab7.server.Commands.InsertCommand
java.io.Serializable <|.. itmo.lab7.common.Request
itmo.lab7.server.Commands.Command <|.. itmo.lab7.server.Commands.MinByTypeCommand
itmo.lab7.server.Commands.Command <|.. itmo.lab7.server.Commands.InfoCommand
itmo.lab7.server.Commands.Command <|.. itmo.lab7.server.Commands.RemoveKeyCommand
itmo.lab7.server.Commands.TypeOfArgument <|.. itmo.lab7.server.Commands.RemoveKeyCommand
itmo.lab7.server.Commands.Command <|.. itmo.lab7.server.Commands.ExitCommand
itmo.lab7.server.Commands.TypeOfArgument <|.. itmo.lab7.server.Commands.ExitCommand
java.io.Serializable <|.. itmo.lab7.common.CommandInfo
itmo.lab7.server.Commands.Command <|.. itmo.lab7.server.Commands.SaveCommand
java.io.Serializable <|.. itmo.lab7.common.Response
java.io.Serializable <|.. itmo.lab7.model.Coordinates
@enduml